<svg xmlns="http://www.w3.org/2000/svg" width="512" height="512" viewBox="0 0 512 512">
  <defs>
    <style>
      .cls-1 {
        fill: #00a0e9;
      }

      .cls-1, .cls-2, .cls-3 {
        fill-rule: evenodd;
      }

      .cls-2 {
        fill: #7ecef4;
      }

      .cls-3 {
        fill: #fff;
      }
    </style>
  </defs>
  <path id="圆角矩形_1" data-name="圆角矩形 1" class="cls-1" d="M231.8,74.381L393.746,236.252a28.606,28.606,0,0,1,0,40.468L231.8,438.591a28.637,28.637,0,0,1-40.486,0L29.368,276.72a28.606,28.606,0,0,1,0-40.468L191.314,74.381A28.637,28.637,0,0,1,231.8,74.381Z"/>
  <path id="圆角矩形_1-2" data-name="圆角矩形 1" class="cls-2" d="M320.642,74.381L482.588,236.252a28.606,28.606,0,0,1,0,40.468L320.642,438.591a28.638,28.638,0,0,1-40.487,0L118.209,276.72a28.606,28.606,0,0,1,0-40.468L280.155,74.381A28.638,28.638,0,0,1,320.642,74.381Z"/>
  <path id="T" class="cls-3" d="M295.3,225.9a13.708,13.708,0,0,1-7.078,4.1,13.01,13.01,0,0,1-6.148.373,13.852,13.852,0,0,1-5.4-2.235,13.553,13.553,0,0,1-4-4.375,13.841,13.841,0,0,1-1.769-6.424,22.5,22.5,0,0,1,1.024-7.913,23.854,23.854,0,0,1,3.539-6.982,22.436,22.436,0,0,1,5.682-5.4,22.169,22.169,0,0,1,7.451-3.165,37.685,37.685,0,0,1,12.3-.559,60.172,60.172,0,0,1,11.549,2.607,89.21,89.21,0,0,1,11.084,4.562q5.491,2.7,11.084,5.492a249.431,249.431,0,0,0-13.04,22.344q-5.964,11.547-11.922,23.088-2.423,4.656-5.961,12.1t-8.1,15.734q-4.567,8.288-9.966,16.478a87.289,87.289,0,0,1-11.55,14.244,45.454,45.454,0,0,1-12.853,9.124,19.984,19.984,0,0,1-13.785,1.21,10.918,10.918,0,0,1-7.358-6.052,19.11,19.11,0,0,1-1.956-9.961,26.871,26.871,0,0,1,2.515-9.868,67.8,67.8,0,0,1,4.75-8.379,25.185,25.185,0,0,1,6.706-7.262,26.447,26.447,0,0,1,8.2-4,23.4,23.4,0,0,1,8.475-.838,20.356,20.356,0,0,1,7.731,2.235q3.537,2.051,5.588,1.862t1.491-5.214a13.795,13.795,0,0,0-10.805-11.73,27.239,27.239,0,0,0-13.784.186,34.079,34.079,0,0,0-11.922,6.145,42.521,42.521,0,0,0-9.314,10.333A48.041,48.041,0,0,0,231.87,290.6a41.091,41.091,0,0,0-1.584,13.685,29.05,29.05,0,0,0,3.726,12.847,19.092,19.092,0,0,0,9.407,8.752,30.21,30.21,0,0,0,12.481,2.234,44.188,44.188,0,0,0,13.133-2.421,57.012,57.012,0,0,0,11.363-5.213,69.979,69.979,0,0,0,19.466-18.713,223.157,223.157,0,0,0,14.064-23q7.637-14.335,13.971-29.139t13.226-29.512q0.743-1.488,1.677-3.91t2.235-5.586a60.427,60.427,0,0,0,12.295,3.538,50.79,50.79,0,0,0,15.927.465,36.343,36.343,0,0,0,14.157-4.748,27.918,27.918,0,0,0,9.966-10.147q3.725-6.425,3.539-15.734l-5.4.187q-0.375,9.683-4.284,14.15a16.2,16.2,0,0,1-10.152,5.4,36.621,36.621,0,0,1-13.972-.931,109.865,109.865,0,0,1-15.554-5.027,37.256,37.256,0,0,1,5.775-7.634,10.243,10.243,0,0,1,6.706-3.352l-1.677-6.144a20.954,20.954,0,0,0-10.711,4.562,55.518,55.518,0,0,0-8.848,9.03q-7.824-3.351-14.157-6.517a92.836,92.836,0,0,0-10.06-4.468,52.92,52.92,0,0,0-15.181-2.886,43.034,43.034,0,0,0-14.251,1.768,35.139,35.139,0,0,0-12.294,6.7,37.564,37.564,0,0,0-9.314,11.917,29.113,29.113,0,0,0-2.981,9.03,34.069,34.069,0,0,0-.186,9.4,29.377,29.377,0,0,0,2.608,9.031,27.737,27.737,0,0,0,5.588,7.913,23.605,23.605,0,0,0,8.942,5.679,20.125,20.125,0,0,0,9.872,1.024,19.626,19.626,0,0,0,8.569-2.979,19.145,19.145,0,0,0,5.775-5.586,17.717,17.717,0,0,0,2.142-5.865,9.3,9.3,0,0,0-.465-5.121,7.77,7.77,0,0,0-3.167-3.63,9.367,9.367,0,0,0-5.589-1.211A12.126,12.126,0,0,1,295.3,225.9Zm22.913,121.958-3.539-2.235,0.186-.372a0.538,0.538,0,0,1,.186.372l4.285,0.559-0.373-.931-4.1-.373a1.687,1.687,0,0,0,.186-0.744V343.39a3.919,3.919,0,0,0-.186-1.49l4.1-.744,0.186-.745-4.1.558-0.186.187a0.165,0.165,0,0,1-.186-0.187l3.725-2.606a1.728,1.728,0,0,0,2.049.186q1.49-.747.373-2.235a1.493,1.493,0,0,0-2.236-.558,1.878,1.878,0,0,0-.558,2.048l-3.726,2.421a0.6,0.6,0,0,1-.373-0.559H314.3l2.235-3.352-0.745-.186-2.235,3.166a3.214,3.214,0,0,0-1.025-.652,7.48,7.48,0,0,1-1.211-.652l1.3-3.537-0.558-.559-1.491,3.91,0.187,0.186a0.381,0.381,0,0,1-.28-0.093,0.377,0.377,0,0,0-.279-0.093v-4.469a1.3,1.3,0,0,0,1.117-1.489,1.5,1.5,0,1,0-2.98,0,1.3,1.3,0,0,0,1.118,1.489l-0.187,4.469a0.527,0.527,0,0,0-.372.186,0.164,0.164,0,0,1,.186-0.186l-1.676-3.91-0.559.559,1.49,3.537a7.233,7.233,0,0,0-2.608,1.676l-2.422-3.352-0.745.373,2.8,3.165v0.373l-4.1-2.049a1.418,1.418,0,0,0-.745-1.862,1.5,1.5,0,1,0-1.49,2.607,1.26,1.26,0,0,0,1.863-.186l3.912,2.421-0.187.372c-0.125,0-.186-0.125-0.186-0.372l-4.1-.373,0.186,0.745,3.912,0.372a3.128,3.128,0,0,1-.093.745,2.953,2.953,0,0,0-.093.745,11.045,11.045,0,0,0,.372,1.862l-4.1.558-0.186.745,4.1-.558a0.328,0.328,0,0,1,.373-0.373L304.985,346l-3.539,2.234q-1.307-.747-1.863-0.372-1.494,1.116-.559,2.42a1.418,1.418,0,0,0,2.235.372,1.316,1.316,0,0,0,.559-1.861l3.54-2.049a0.329,0.329,0,0,1,.372.373h-0.372l-2.608,3.537h0.931L306.1,347.3a6.67,6.67,0,0,0,2.421,1.3l-1.676,3.91,0.559,0.559,1.676-3.724a0.757,0.757,0,0,1-.186-0.558V348.6h0.372l0.187,4.469a1.46,1.46,0,0,0-1.118,1.49,1.5,1.5,0,1,0,2.98,0c0-1-.372-1.49-1.117-1.49V348.6h0.372v0.187a0.77,0.77,0,0,1-.186.558l1.677,3.724,0.558-.559-1.676-3.91a4.569,4.569,0,0,0,2.608-1.489l2.608,3.351,0.931-.186-2.608-3.165a1.042,1.042,0,0,1-.559-0.373l0.373-.186,3.539,2.048a3.011,3.011,0,0,0,.187.931,1.187,1.187,0,0,0,.558.745,1.5,1.5,0,0,0,2.236-.558,1.208,1.208,0,0,0,.093-1.211,3.221,3.221,0,0,0-.652-1.024h0a1.361,1.361,0,0,0-2.049.373h0ZM252.454,226.274q-0.375.375,0.745,2.234L250.591,230l-0.373.373c-0.125-.122-0.064-0.373.187-0.745h0.372l-0.186-2.607h-0.186l-0.187-.186-2.421,1.117v0.373h0.186a0.494,0.494,0,0,1-.559.558l0.187-.372v-2.979c0.62-.122,1.146-0.216,1.583-0.28s0.652-.215.652-0.465c0-.372-0.809-0.559-2.422-0.559s-2.421.187-2.421,0.559c0,0.25.681,0.5,2.049,0.745v3.351c-0.251,0-.373-0.186-0.373-0.558l0.186-.373-2.421-1.117-0.186.186-0.373.186-0.186,2.607a0.55,0.55,0,0,1,.372.186c0.248,0,.373.187,0.373,0.559l-0.559-.372-2.608-1.49q1.118-1.858.745-2.234a0.713,0.713,0,0,0-.838.372,5.464,5.464,0,0,0-.838,1.49,10.688,10.688,0,0,0-.839,1.675c-0.186.5-.218,0.745-0.093,0.745a0.719,0.719,0,0,0,.838-0.279,4.663,4.663,0,0,0,.839-1.21l2.608,1.489a0.749,0.749,0,0,0,.559.186h-0.746a0.527,0.527,0,0,1-.372-0.186l-2.049,1.3V232.6l3.353-1.3,1.676,1.117-1.676,1.3-3.353-1.117-0.187.559,2.236,1.3a388.044,388.044,0,0,1,.745-0.372l-2.422,1.675q-0.934-1.676-1.676-1.675-0.376.746,0.931,2.42,1.3,2.052,1.863,1.862c0.373-.247.122-0.931-0.745-2.048l2.422-1.676a0.763,0.763,0,0,1-.187.559h-0.186V238h0.373l0.186,0.186,2.421-1.3a0.164,0.164,0,0,1-.186-0.187,0.329,0.329,0,0,1,.373-0.372v2.793c-1.368,0-2.049.186-2.049,0.559s0.806,0.558,2.421.558,2.422-.186,2.422-0.558c0-.248-0.218-0.4-0.652-0.466a11.632,11.632,0,0,0-1.583-.093v-2.793c0.122,0,.186.125,0.186,0.372v0.187l2.421,1.3,0.746-.372v-2.793h-0.187c-0.125,0-.186-0.187-0.186-0.559l2.422,1.49a4.657,4.657,0,0,0-.652,1.489,5.421,5.421,0,0,0-.093.745,0.712,0.712,0,0,0,.838-0.372,12.156,12.156,0,0,0,1.024-1.49q1.119-2.046.559-2.607a7.816,7.816,0,0,0-1.49,1.862l-2.422-1.489h0.373l0.372,0.186,2.236-1.49-0.186-.372-3.354,1.3-1.676-1.3,1.676-1.3,3.167,1.3,0.373-.559-2.422-1.3,2.049-1.676q1.3,1.864,1.677,1.49,0.558,0-.745-2.421h0q-1.677-1.858-1.863-1.675h0Zm-4.471,117.488-0.186-.372-1.677.372-0.931-.558,0.931-.745,1.677,0.186v-0.372l-0.932-.373-0.186.187h-0.372l2.794-1.676-0.186-.559-2.422,1.49,0.186-.931-0.559-.186-0.559,1.675-0.931.373v-0.931l1.118-1.49-0.187-.186-0.931.745,0.186,0.186a0.55,0.55,0,0,1-.186.372l-0.186-3.537h-0.373v3.537c-0.125,0-.186-0.125-0.186-0.372v-0.186l-0.745-.745-0.186.186,0.931,1.49v1.117l-0.931-.559-0.746-1.489h-0.372l0.186,0.931h0.186l0.187,0.186c0.122,0,.186.122,0.186,0.372l-2.98-1.675-0.187.186,2.981,1.862h-0.373a0.537,0.537,0,0,0-.372-0.186l-0.932.372v0.372l1.863-.186,0.931,0.559-0.931.558h-1.863v0.373l0.932,0.186a0.166,0.166,0,0,0,.186-0.186h0.372L239.6,345.81l0.186,0.373,2.235-1.3v0.931L242.4,346l0.559-1.676,0.931-.373v1.118l-0.931,1.117,0.186,0.372,0.745-.745a0.748,0.748,0,0,1,.186-0.558V348.6h0.373l0.186-2.793,0.931,0.745,0.187-.372-1.118-1.117v-1.3l1.118,0.559,0.559,1.489h0.558l-0.372-.931-0.186-.186H246.12v-0.372l2.795,1.489,0.186-.186-2.608-1.489h0.372Zm66.689,0.373a1.675,1.675,0,0,1-.187.744h-1.117l-2.05-1.489,1.863-1.3,1.3-.187a3.893,3.893,0,0,1,.187,1.49v0.745Zm-9.687-2.048H306.1l1.862,1.489-1.862,1.3-1.118.373a7.8,7.8,0,0,1-.186-1.862,3.167,3.167,0,0,1,.186-1.3h0Zm4.1-2.421L308.9,341.9l-2.049-.931-0.745-.931a5.554,5.554,0,0,1,2.421-1.675Zm1.3,7.634,0.186-2.421L312.809,346l0.559,0.744a3.879,3.879,0,0,1-1.211.838,7.249,7.249,0,0,0-1.211.652Zm2.235-6.517-2.049,1.117-0.186-2.234,0.559-1.117a1.976,1.976,0,0,1,1.3.465c0.372,0.309.681,0.588,0.931,0.838ZM247.8,233.535l2.049,0.931,0.372,3.165-2.421-2.048v-2.048ZM306.848,346l2.049-.931,0.186,2.234-0.372.931a6.373,6.373,0,0,0-1.3-.652,3.115,3.115,0,0,1-1.118-.651ZM246.865,229.253l-0.186,2.048L245,230.556l-0.559-3.165ZM245,234.466l1.676-.931,0.186,2.048-2.235,1.862Zm2.794-5.213,2.235-1.676-0.372,2.793-1.863.931v-2.048Zm62.4,109.854v-0.744h0.559a1.767,1.767,0,0,1-.559.744h0Zm-5.216,2.607a0.521,0.521,0,0,1,.373-0.372l0.372,0.372a0.8,0.8,0,0,1-.745,0h0Zm8.383-1.676,0.372,0.373-0.559.372a1.067,1.067,0,0,1,.187-0.745h0Zm-4.471-1.675h0.372v0.744a1.069,1.069,0,0,1-.372-0.744h0Zm-2.794,2.048a0.537,0.537,0,0,0,.186.372l-0.559-.372,0.373-.186h0v0.186Zm7.637,1.117,0.559-.372v0.372H313.74Zm-71.718,3.351,0.559-.372a0.55,0.55,0,0,1-.186.372h-0.373Zm8.942-114.137,0.186-.186v0.186a0.464,0.464,0,0,1-.745,0h0.559Zm62.59,115.441h0.186l-0.186.186h0v-0.186Zm-7.451.372-0.187-.186H306.1v0.186Zm8.2-1.3v0.186l-0.186-.186H314.3Z"/>
</svg>
