<svg xmlns="http://www.w3.org/2000/svg" width="1242" height="258" viewBox="0 0 1242 258">
  <defs>
    <style>
      .cls-1 {
        fill: #00a0e9;
      }

      .cls-1, .cls-2 {
        stroke: #595959;
        stroke-width: 1px;
      }

      .cls-1, .cls-2, .cls-3, .cls-4 {
        fill-rule: evenodd;
      }

      .cls-2 {
        fill: #7ecef4;
      }

      .cls-3 {
        fill: #fff;
      }

      .cls-4 {
        fill: #1f2124;
        stroke: #1f2124;
        stroke-linejoin: round;
        stroke-width: 2px;
      }
    </style>
  </defs>
  <path id="圆角矩形_1" data-name="圆角矩形 1" class="cls-1" d="M139.018,51.982l76.838,76.9a13.6,13.6,0,0,1,0,19.225l-76.838,76.9a13.576,13.576,0,0,1-19.21,0l-76.838-76.9a13.6,13.6,0,0,1,0-19.225l76.838-76.9A13.576,13.576,0,0,1,139.018,51.982Z"/>
  <path id="圆角矩形_1-2" data-name="圆角矩形 1" class="cls-2" d="M181.17,51.982l76.839,76.9a13.6,13.6,0,0,1,0,19.225l-76.839,76.9a13.575,13.575,0,0,1-19.209,0l-76.838-76.9a13.6,13.6,0,0,1,0-19.225l76.838-76.9A13.575,13.575,0,0,1,181.17,51.982Z"/>
  <path id="T" class="cls-3" d="M169.146,123.964a6.509,6.509,0,0,1-3.359,1.946,6.17,6.17,0,0,1-2.916.176,6.548,6.548,0,0,1-2.564-1.061,6.438,6.438,0,0,1-1.9-2.079,6.593,6.593,0,0,1-.84-3.051,10.72,10.72,0,0,1,.487-3.76,11.32,11.32,0,0,1,1.679-3.317,10.644,10.644,0,0,1,2.7-2.565,10.512,10.512,0,0,1,3.535-1.5,17.842,17.842,0,0,1,5.833-.265,28.571,28.571,0,0,1,5.48,1.238,42.312,42.312,0,0,1,5.259,2.167q2.606,1.284,5.259,2.61a118.589,118.589,0,0,0-6.187,10.614l-5.657,10.969q-1.149,2.212-2.828,5.749t-3.845,7.475q-2.166,3.936-4.728,7.828a41.517,41.517,0,0,1-5.48,6.767,21.564,21.564,0,0,1-6.1,4.334,9.47,9.47,0,0,1-6.541.575,5.18,5.18,0,0,1-3.491-2.875,9.076,9.076,0,0,1-.928-4.732,12.763,12.763,0,0,1,1.193-4.688,32.277,32.277,0,0,1,2.254-3.981,11.944,11.944,0,0,1,3.182-3.449,12.515,12.515,0,0,1,3.889-1.9,11.067,11.067,0,0,1,4.021-.4,9.665,9.665,0,0,1,3.668,1.061,4.916,4.916,0,0,0,2.652.885q0.97-.087.707-2.477a6.4,6.4,0,0,0-1.5-3.405,6.334,6.334,0,0,0-3.624-2.168,12.911,12.911,0,0,0-6.54.089,16.18,16.18,0,0,0-5.657,2.919,20.215,20.215,0,0,0-4.419,4.909,22.862,22.862,0,0,0-2.784,6.1,19.525,19.525,0,0,0-.751,6.5,13.811,13.811,0,0,0,1.767,6.1,9.066,9.066,0,0,0,4.464,4.158,14.321,14.321,0,0,0,5.922,1.061,20.933,20.933,0,0,0,6.231-1.15,27,27,0,0,0,5.391-2.477,33.226,33.226,0,0,0,9.236-8.889,106.156,106.156,0,0,0,6.673-10.924q3.624-6.811,6.629-13.844t6.275-14.02q0.352-.707.8-1.857t1.06-2.654a28.668,28.668,0,0,0,5.834,1.681,24.057,24.057,0,0,0,7.557.221,17.226,17.226,0,0,0,6.717-2.256,13.255,13.255,0,0,0,4.728-4.82,14.125,14.125,0,0,0,1.68-7.475l-2.564.089q-0.177,4.6-2.032,6.722a7.68,7.68,0,0,1-4.817,2.565,17.352,17.352,0,0,1-6.629-.442,52.158,52.158,0,0,1-7.38-2.388,17.685,17.685,0,0,1,2.74-3.627,4.855,4.855,0,0,1,3.182-1.592l-0.8-2.919a9.938,9.938,0,0,0-5.082,2.167,26.387,26.387,0,0,0-4.2,4.29q-3.713-1.592-6.717-3.1a44.25,44.25,0,0,0-4.773-2.123,25.114,25.114,0,0,0-7.2-1.371,20.389,20.389,0,0,0-6.762.841,16.653,16.653,0,0,0-5.833,3.184,17.84,17.84,0,0,0-4.419,5.661,13.854,13.854,0,0,0-1.415,4.29,16.215,16.215,0,0,0-.088,4.467,13.977,13.977,0,0,0,1.237,4.29,13.192,13.192,0,0,0,2.652,3.76,11.182,11.182,0,0,0,4.242,2.7,9.532,9.532,0,0,0,4.685.487,9.3,9.3,0,0,0,4.065-1.415,9.1,9.1,0,0,0,2.74-2.654,8.426,8.426,0,0,0,1.017-2.786,4.43,4.43,0,0,0-.221-2.433,3.7,3.7,0,0,0-1.5-1.725,4.441,4.441,0,0,0-2.651-.575A5.765,5.765,0,0,1,169.146,123.964ZM180.017,181.9l-1.679-1.061,0.088-.177a0.256,0.256,0,0,1,.089.177l2.032,0.265-0.176-.442-1.945-.177a0.8,0.8,0,0,0,.089-0.354v-0.354a1.852,1.852,0,0,0-.089-0.707l1.945-.354,0.088-.354-1.944.265-0.089.089a0.078,0.078,0,0,1-.088-0.089l1.767-1.238a0.821,0.821,0,0,0,.973.089q0.707-.356.176-1.062a0.707,0.707,0,0,0-1.06-.265,0.892,0.892,0,0,0-.265.973l-1.768,1.15a0.284,0.284,0,0,1-.177-0.266h0.177l1.061-1.592-0.354-.088-1.061,1.5a1.529,1.529,0,0,0-.486-0.309,3.573,3.573,0,0,1-.574-0.31l0.619-1.68-0.266-.266-0.707,1.858,0.089,0.088a0.181,0.181,0,0,1-.133-0.044,0.179,0.179,0,0,0-.132-0.044V175a0.619,0.619,0,0,0,.53-0.708,0.712,0.712,0,1,0-1.414,0,0.619,0.619,0,0,0,.53.708l-0.088,2.123a0.251,0.251,0,0,0-.177.088,0.078,0.078,0,0,1,.088-0.088l-0.8-1.858-0.265.266,0.707,1.68a3.426,3.426,0,0,0-1.238.8l-1.149-1.592-0.353.177,1.326,1.5v0.177l-1.945-.973a0.675,0.675,0,0,0-.353-0.885,0.713,0.713,0,1,0-.707,1.238,0.6,0.6,0,0,0,.883-0.088l1.856,1.15-0.088.177c-0.059,0-.088-0.06-0.088-0.177l-1.945-.177,0.089,0.354,1.856,0.177a1.494,1.494,0,0,1-.045.354,1.417,1.417,0,0,0-.044.353,5.23,5.23,0,0,0,.177.885l-1.944.265-0.089.354,1.945-.265a0.155,0.155,0,0,1,.176-0.177l0.089,0.177-1.68,1.061a0.9,0.9,0,0,0-.883-0.177,0.75,0.75,0,0,0-.265,1.15,0.671,0.671,0,0,0,1.06.177,0.625,0.625,0,0,0,.265-0.884l1.68-.973a0.155,0.155,0,0,1,.176.176h-0.176l-1.238,1.681h0.442l1.149-1.592a3.164,3.164,0,0,0,1.149.619l-0.795,1.858,0.265,0.265,0.8-1.769a0.361,0.361,0,0,1-.088-0.265v-0.089h0.177l0.088,2.123a0.693,0.693,0,0,0-.53.708,0.712,0.712,0,1,0,1.414,0c0-.473-0.177-0.708-0.53-0.708v-2.123h0.176v0.089a0.365,0.365,0,0,1-.088.265l0.795,1.769,0.266-.265-0.8-1.858a2.167,2.167,0,0,0,1.237-.708l1.238,1.593,0.442-.089-1.238-1.5a0.5,0.5,0,0,1-.265-0.176l0.177-.089,1.679,0.973a1.426,1.426,0,0,0,.089.442,0.563,0.563,0,0,0,.265.354,0.709,0.709,0,0,0,1.06-.265,0.573,0.573,0,0,0,.045-0.575,1.542,1.542,0,0,0-.31-0.487h0a0.645,0.645,0,0,0-.972.177h0Zm-31.2-57.761a1.251,1.251,0,0,0,.354,1.062l-1.237.708-0.177.176q-0.09-.087.088-0.353h0.177l-0.088-1.239h-0.089l-0.088-.088-1.149.531v0.176H146.7a0.235,0.235,0,0,1-.265.266l0.088-.177v-1.415c0.295-.058.545-0.1,0.752-0.133s0.309-.1.309-0.221c0-.177-0.384-0.266-1.149-0.266s-1.149.089-1.149,0.266a1.348,1.348,0,0,0,.972.354v1.592c-0.118,0-.176-0.089-0.176-0.266l0.088-.176-1.149-.531-0.088.088-0.177.089-0.089,1.238a0.258,0.258,0,0,1,.177.089c0.118,0,.177.088,0.177,0.265L144.752,126l-1.238-.708a1.252,1.252,0,0,0,.354-1.061,0.339,0.339,0,0,0-.4.177,2.625,2.625,0,0,0-.4.707,5.1,5.1,0,0,0-.4.8c-0.089.236-.1,0.353-0.044,0.353a0.339,0.339,0,0,0,.4-0.132,2.218,2.218,0,0,0,.4-0.575l1.237,0.707a0.355,0.355,0,0,0,.266.089h-0.354a0.25,0.25,0,0,1-.177-0.089l-0.972.62v0.265l1.591-.619,0.8,0.53-0.8.62-1.591-.531-0.088.265,1.06,0.619a3190119203838.535,3190119203838.535,0,0,1,.354-0.176l-1.149.8a1.244,1.244,0,0,0-.8-0.8,1.276,1.276,0,0,0,.442,1.149q0.618,0.975.884,0.885c0.177-.117.058-0.442-0.353-0.973l1.149-.8a0.36,0.36,0,0,1-.089.265h-0.088v1.327h0.177l0.088,0.089,1.149-.62a0.078,0.078,0,0,1-.088-0.088,0.156,0.156,0,0,1,.176-0.177v1.327c-0.649,0-.972.088-0.972,0.265s0.383,0.266,1.149.266,1.149-.089,1.149-0.266c0-.117-0.1-0.191-0.309-0.221a5.514,5.514,0,0,0-.752-0.044v-1.327c0.058,0,.089.059,0.089,0.177v0.088l1.149,0.62,0.353-.177V128.3h-0.088c-0.059,0-.088-0.089-0.088-0.266l1.149,0.708a2.224,2.224,0,0,0-.31.708,2.611,2.611,0,0,0-.044.354,0.339,0.339,0,0,0,.4-0.177,5.83,5.83,0,0,0,.486-0.708q0.53-.972.265-1.238a3.717,3.717,0,0,0-.707.884l-1.149-.707H148.2l0.177,0.088,1.06-.708-0.088-.177-1.591.62-0.8-.62,0.8-.619,1.5,0.619,0.177-.265-1.149-.619,0.972-.8q0.618,0.885.8,0.707,0.265,0-.354-1.149h0a2.221,2.221,0,0,0-.884-0.8h0ZM146.7,179.955l-0.088-.177-0.8.177-0.442-.265,0.442-.354,0.8,0.089v-0.177l-0.442-.177-0.088.088H145.9l1.326-.8-0.089-.265-1.149.707,0.089-.442-0.266-.088-0.265.8-0.442.177v-0.443l0.531-.707-0.089-.089-0.442.354,0.089,0.089a0.26,0.26,0,0,1-.089.176l-0.088-1.68H144.84v1.68c-0.059,0-.088-0.059-0.088-0.176v-0.089l-0.354-.354-0.088.089,0.442,0.707v0.531l-0.442-.265-0.354-.708H143.78l0.088,0.442h0.088l0.089,0.089c0.058,0,.088.058,0.088,0.177l-1.414-.8-0.088.088,1.414,0.885h-0.177a0.254,0.254,0,0,0-.177-0.089l-0.442.177v0.177l0.884-.088,0.442,0.265-0.442.265h-0.884v0.177l0.442,0.089a0.08,0.08,0,0,0,.089-0.089h0.176l-1.237.8,0.088,0.177,1.061-.619v0.442l0.177,0.089,0.265-.8,0.442-.177v0.53l-0.442.531,0.088,0.177,0.354-.354a0.356,0.356,0,0,1,.088-0.265v1.592h0.177l0.088-1.327,0.442,0.354,0.089-.177-0.531-.531v-0.619l0.531,0.266,0.265,0.707h0.265l-0.177-.442L145.9,180.4h-0.089v-0.177l1.326,0.707,0.089-.088-1.238-.708h0.177Zm31.642,0.177a0.8,0.8,0,0,1-.089.354h-0.53l-0.972-.708,0.884-.619,0.618-.088a1.852,1.852,0,0,1,.089.707v0.354Zm-4.6-.973h0.53l0.884,0.708-0.884.619-0.53.177a3.669,3.669,0,0,1-.089-0.885,1.5,1.5,0,0,1,.089-0.619h0Zm1.944-1.15-0.088,1.062-0.972-.443-0.354-.442a2.648,2.648,0,0,1,1.149-.8Zm0.619,3.627,0.088-1.15,1.061,0.531,0.265,0.354a1.875,1.875,0,0,1-.574.4,3.39,3.39,0,0,0-.575.309Zm1.061-3.1-0.973.531-0.088-1.062,0.265-.53a0.936,0.936,0,0,1,.619.221c0.177,0.146.323,0.279,0.442,0.4Zm-30.758-50.95,0.972,0.442,0.177,1.5-1.149-.973V127.59Zm28.018,53.427,0.972-.443,0.088,1.062-0.177.442a2.946,2.946,0,0,0-.618-0.309,1.49,1.49,0,0,1-.531-0.31Zm-28.46-55.461-0.088.973-0.8-.354-0.265-1.5Zm-0.884,2.476,0.8-.442,0.088,0.973-1.061.885Zm1.326-2.476,1.06-.8-0.176,1.326-0.884.443v-0.973Zm29.609,52.188V177.39h0.265a0.845,0.845,0,0,1-.265.354h0Zm-2.475,1.238a0.249,0.249,0,0,1,.177-0.177l0.176,0.177a0.38,0.38,0,0,1-.353,0h0Zm3.977-.8,0.177,0.177-0.265.177a0.511,0.511,0,0,1,.088-0.354h0Zm-2.121-.8h0.177v0.354a0.508,0.508,0,0,1-.177-0.354h0Zm-1.326.973a0.256,0.256,0,0,0,.088.177l-0.265-.177,0.177-.088h0v0.088Zm3.624,0.531,0.265-.177v0.177H177.9Zm-34.028,1.592,0.265-.177a0.26,0.26,0,0,1-.088.177h-0.177Zm4.242-54.223,0.089-.088v0.088a0.22,0.22,0,0,1-.354,0h0.265Zm29.7,54.842H177.9l-0.089.089h0v-0.089Zm-3.535.177-0.088-.088h0.088v0.088Zm3.889-.619v0.088l-0.088-.088h0.088Z"/>
  <path id="Coder_Tian" data-name="Coder Tian" class="cls-4" d="M418.207,181.616a4.085,4.085,0,0,0-1.232-2.992,4.206,4.206,0,0,0-2.816-1.056,4.079,4.079,0,0,0-2.992,1.232A47.134,47.134,0,0,1,395.5,190.064a45.792,45.792,0,0,1-18.656,3.872,43.371,43.371,0,0,1-24.2-7.3,52.315,52.315,0,0,1-17.688-19.448,54.622,54.622,0,0,1-6.512-26.224,55.312,55.312,0,0,1,6.512-26.224,52,52,0,0,1,17.688-19.624,43.4,43.4,0,0,1,24.2-7.3,38.728,38.728,0,0,1,16.544,3.608,53.865,53.865,0,0,1,15.136,11,4.959,4.959,0,0,0,2.992,1.232,3.871,3.871,0,0,0,2.816-1.232,4.072,4.072,0,0,0,1.232-2.992,4.206,4.206,0,0,0-1.056-2.816,58.409,58.409,0,0,0-17.688-12.76,48.362,48.362,0,0,0-19.976-4.136,51.054,51.054,0,0,0-28.336,8.448,61.2,61.2,0,0,0-20.68,22.528,63.676,63.676,0,0,0,0,60.544,61.169,61.169,0,0,0,20.68,22.528,51.054,51.054,0,0,0,28.336,8.448,51.7,51.7,0,0,0,21.56-4.664,63.357,63.357,0,0,0,18.744-13.112,3.8,3.8,0,0,0,1.056-2.816h0Zm94.336-44.088a40.1,40.1,0,0,0-36.08-21.208,42.257,42.257,0,0,0-21.648,5.632,40.491,40.491,0,0,0-15.224,15.576,45.3,45.3,0,0,0-5.544,22.44,43.6,43.6,0,0,0,5.544,21.912,40.8,40.8,0,0,0,15.224,15.4,42.247,42.247,0,0,0,21.648,5.632,40.394,40.394,0,0,0,36.08-21.032A44.183,44.183,0,0,0,518,159.968,45.906,45.906,0,0,0,512.543,137.528Zm-7.128,40.216a31.64,31.64,0,0,1-11.968,12.408,32.965,32.965,0,0,1-16.984,4.488,34.106,34.106,0,0,1-17.424-4.488,32.677,32.677,0,0,1-12.232-12.408,35.411,35.411,0,0,1-4.488-17.776,37.252,37.252,0,0,1,4.488-18.216A33.471,33.471,0,0,1,459.039,128.9a33.129,33.129,0,0,1,17.424-4.664,32.033,32.033,0,0,1,16.984,4.664,32.44,32.44,0,0,1,11.968,12.848,38.478,38.478,0,0,1,4.312,18.216A36.563,36.563,0,0,1,505.415,177.744ZM611.629,78.656a4.083,4.083,0,0,0-1.232-2.992,3.884,3.884,0,0,0-2.816-1.232,4.206,4.206,0,0,0-4.224,4.224V161.2a35.245,35.245,0,0,1-4.048,16.9,29.478,29.478,0,0,1-11.264,11.792,31.457,31.457,0,0,1-16.192,4.224,29.714,29.714,0,0,1-16.016-4.488,31.654,31.654,0,0,1-11.352-12.232,36.015,36.015,0,0,1-4.136-17.248,38.881,38.881,0,0,1,4.136-17.952,31.755,31.755,0,0,1,11.352-12.672,29.3,29.3,0,0,1,16.016-4.576q10.032,0,19.36,6.512a3.537,3.537,0,0,0,2.288.7,3.73,3.73,0,0,0,3.344-1.584,4.217,4.217,0,0,0,.88-2.464,4.013,4.013,0,0,0-1.584-3.344q-10.209-8.093-24.288-8.1a37.313,37.313,0,0,0-20.328,5.72,40.169,40.169,0,0,0-14.256,15.576,46.851,46.851,0,0,0-5.192,22.176,44.535,44.535,0,0,0,5.192,21.56,38.448,38.448,0,0,0,34.584,20.5,39.147,39.147,0,0,0,20.328-5.368,38.532,38.532,0,0,0,14.256-14.7,42.335,42.335,0,0,0,5.192-20.944V78.656Zm91.7,102.256a3.693,3.693,0,0,0-1.936-3.52,3.931,3.931,0,0,0-5.632,1.232,35.735,35.735,0,0,1-27.984,15.488,33.243,33.243,0,0,1-17.248-4.576,32.466,32.466,0,0,1-12.144-12.584,38.439,38.439,0,0,1-.176-35.376,31.76,31.76,0,0,1,11.616-12.32,32.462,32.462,0,0,1,31.68-.7,32.515,32.515,0,0,1,11.528,10.3,31.324,31.324,0,0,1,5.368,14.608H650a3.8,3.8,0,0,0-2.9,1.232,4.234,4.234,0,0,0-1.144,2.992A3.914,3.914,0,0,0,650,161.728h52.8a3.914,3.914,0,0,0,4.048-4.048,41.772,41.772,0,0,0-5.28-20.944,38.834,38.834,0,0,0-14.52-14.7,40.428,40.428,0,0,0-20.68-5.368,39.871,39.871,0,0,0-20.768,5.544,39.2,39.2,0,0,0-14.608,15.224,47.051,47.051,0,0,0,.176,43.648,40.131,40.131,0,0,0,15.048,15.488,41.779,41.779,0,0,0,21.56,5.632,40.894,40.894,0,0,0,19.8-5.456A40,40,0,0,0,702.621,183.2a3.557,3.557,0,0,0,.7-2.288h0Zm24.725,20.064a4.026,4.026,0,0,0,1.144-2.816V156.448a33.439,33.439,0,0,1,3.608-14.784,34.179,34.179,0,0,1,9.68-12.144,21.088,21.088,0,0,1,13.288-4.752,17.525,17.525,0,0,1,7.744,2.112,2.86,2.86,0,0,0,1.584.352,3.5,3.5,0,0,0,2.288-.88,4.215,4.215,0,0,0,1.408-2.112,3.931,3.931,0,0,0,.176-1.232,4.406,4.406,0,0,0-2.64-4.048,24.832,24.832,0,0,0-25.608,2.9,43.052,43.052,0,0,0-11.528,13.992V120.9a4.247,4.247,0,0,0-1.144-2.992,3.8,3.8,0,0,0-2.9-1.232,4.206,4.206,0,0,0-4.224,4.224V198.16a3.875,3.875,0,0,0,1.232,2.816,4.075,4.075,0,0,0,2.992,1.232A3.8,3.8,0,0,0,728.05,200.976ZM953.767,83.76a4.084,4.084,0,0,0-2.992-1.232h-98.56a3.8,3.8,0,0,0-2.9,1.232,4.236,4.236,0,0,0-1.144,2.992,4.013,4.013,0,0,0,1.144,2.816,3.785,3.785,0,0,0,2.9,1.232h45.232V197.984a4.235,4.235,0,0,0,1.144,2.992,4.039,4.039,0,0,0,5.808,0,4.244,4.244,0,0,0,1.144-2.992V90.8h45.232a4.073,4.073,0,0,0,2.992-1.232A3.878,3.878,0,0,0,955,86.752,4.083,4.083,0,0,0,953.767,83.76Zm59.313,20.416a4.051,4.051,0,0,0-.71-2.288,3.37,3.37,0,0,0-1.93-1.408A62.592,62.592,0,0,1,996.8,92.736a88.12,88.12,0,0,1-8.36-6.864,3.532,3.532,0,0,0-2.816-1.232,4.074,4.074,0,0,0-2.992,1.232,4.82,4.82,0,0,0-1.232,2.816,4.194,4.194,0,0,0,1.408,2.992,24.136,24.136,0,0,0,4.048,3.784,92.924,92.924,0,0,0,9.328,6.688,76.647,76.647,0,0,0,11.969,6.248c2.34-.352,3.87-1.232,4.57-2.64a5.48,5.48,0,0,0,.36-1.584h0Zm0.7,89.936a3.885,3.885,0,0,0-2.82-1.232H997.237V120.72a4,4,0,0,0-.792-2.464,3.79,3.79,0,0,0-2.024-1.408,3.075,3.075,0,0,0-1.232-.176,4.215,4.215,0,0,0-3.52,1.936,23.333,23.333,0,0,1-2.728,3.96,75.756,75.756,0,0,1-7.3,8.1,63.375,63.375,0,0,1-10.384,8.184,3.931,3.931,0,0,0-1.232,5.632,4.205,4.205,0,0,0,3.52,1.936,3.549,3.549,0,0,0,2.288-.7,55.693,55.693,0,0,0,7.744-5.808q3.518-3.168,7.568-7.392v64.416a4.231,4.231,0,0,0,1.144,2.992,3.79,3.79,0,0,0,2.9,1.232h17.771a3.881,3.881,0,0,0,2.82-1.232,4.08,4.08,0,0,0,1.23-2.992A3.882,3.882,0,0,0,1013.78,194.112Zm91.69,7.568V155.04a38.807,38.807,0,0,0-5.1-19.976,35.433,35.433,0,0,0-14.17-13.552,43.215,43.215,0,0,0-20.68-4.84,37.009,37.009,0,0,0-20.24,5.808,41.122,41.122,0,0,0-14.43,15.752,46,46,0,0,0-5.28,21.912,44.193,44.193,0,0,0,5.19,21.384,39.055,39.055,0,0,0,14.35,15.136,38.609,38.609,0,0,0,20.41,5.544q15.315,0,24.47-7.216a3.934,3.934,0,0,0,.7-5.632,3.55,3.55,0,0,0-3.17-1.584,3.85,3.85,0,0,0-2.46.7q-7.215,5.636-19.54,5.632a30.8,30.8,0,0,1-16.37-4.4,30.389,30.389,0,0,1-11.26-12.144,37.016,37.016,0,0,1-4.05-17.424,38.327,38.327,0,0,1,4.14-17.864,32.508,32.508,0,0,1,11.35-12.672,29.208,29.208,0,0,1,16.19-4.664q14.265,0,22.97,8.36t8.71,21.736v46.64a3.8,3.8,0,0,0,1.23,2.9,4.246,4.246,0,0,0,3,1.144,3.907,3.907,0,0,0,4.04-4.048h0Zm90.12-3.52V154.512a36.811,36.811,0,0,0-5.11-18.92,38.09,38.09,0,0,0-13.81-13.816,38.29,38.29,0,0,0-38.2,0,38.09,38.09,0,0,0-13.81,13.816,36.714,36.714,0,0,0-5.11,18.92V198.16a3.923,3.923,0,0,0,4.05,4.048,3.908,3.908,0,0,0,4.05-4.048V154.512a28.461,28.461,0,0,1,4.05-14.872,30.633,30.633,0,0,1,10.91-10.824,28.943,28.943,0,0,1,14.96-4.048,28.47,28.47,0,0,1,14.87,4.048,30.9,30.9,0,0,1,10.83,10.824,28.546,28.546,0,0,1,4.04,14.872V198.16a3.923,3.923,0,0,0,4.05,4.048,4.239,4.239,0,0,0,2.99-1.144,3.806,3.806,0,0,0,1.24-2.9h0Z"/>
</svg>
